<svg width="80" height="80" viewBox="0 0 80 80" fill="none" xmlns="http://www.w3.org/2000/svg">
<path d="M75.8595 36.5134L68.347 29.7199V15.8395C68.347 14.695 67.4226 13.7853 66.2928 13.7853H58.0468C56.9023 13.7853 55.9926 14.7097 55.9926 15.8395V18.5539L42.0681 5.97941C40.6155 4.67353 38.4146 4.67353 36.962 5.97941L3.25873 36.5134C0.676323 38.861 2.33434 43.1455 5.81178 43.1455C6.73617 43.1455 7.6312 42.808 8.3355 42.1917L10.6978 40.1082V70.877C10.6978 73.1512 12.5466 75 14.8208 75H64.2387C66.5129 75 68.3617 73.1512 68.3617 70.877V40.1082L70.724 42.1917C71.4136 42.808 72.3087 43.1455 73.2477 43.1455H73.3358C76.7839 43.1455 78.4419 38.8464 75.8595 36.5134ZM39.5151 68.9255C29.2735 68.9255 20.9834 60.6354 20.9834 50.3938C20.9834 40.1522 29.2882 31.8621 39.5151 31.8621C49.742 31.8621 58.0468 40.1669 58.0468 50.3938C58.0468 60.6207 49.7567 68.9255 39.5151 68.9255ZM50.1675 43.0134C51.6348 44.4807 52.3684 46.4175 52.3684 48.3396C52.3684 50.2617 51.6348 52.1986 50.1675 53.6658L40.9677 62.8656C40.1607 63.6726 38.8548 63.6726 38.0625 62.8656L28.8627 53.6658C27.3954 52.1986 26.6618 50.2617 26.6618 48.3396C26.6618 46.4028 27.3954 44.4807 28.8627 43.0134C31.8119 40.0642 37.681 40.0935 39.5151 44.0112C41.3492 40.0935 47.2329 40.0642 50.1675 43.0134Z" fill="#C4A878"/>
</svg>
