<svg width="80" height="80" viewBox="0 0 80 80" fill="none" xmlns="http://www.w3.org/2000/svg">
<path d="M37.6562 77.6562C37.6562 78.9506 38.7055 79.9999 39.9999 79.9999C41.2943 79.9999 42.3437 78.9506 42.3437 77.6562V58.1307C40.8583 58.8173 39.2781 59.2766 37.6562 59.4932V77.6562ZM29.0932 31.7551C28.5562 30.3929 28.2807 28.9417 28.2812 27.4774C28.2812 24.2465 29.5954 21.3168 31.7174 19.1949L20.5293 8.00682C19.5082 6.98573 17.7751 7.34604 17.2455 8.68963L13.3433 18.5914C11.6232 22.956 12.6565 27.9254 15.9738 31.2428L22.7896 38.0587L29.0932 31.7551ZM39.9999 39.1962C36.769 39.1962 33.8393 37.882 31.7174 35.7599L20.5293 46.9481C19.5082 47.9692 19.8685 49.7023 21.2121 50.2318L31.1138 54.134C35.4785 55.8542 40.4479 54.8209 43.7652 51.5035L50.581 44.6878L44.2774 38.3842C42.9153 38.9212 41.4641 39.1967 39.9999 39.1962ZM64.026 23.7121L57.4387 17.1248L51.1669 23.9257C51.5331 25.074 51.7192 26.2721 51.7187 27.4773C51.7187 30.7082 50.4044 33.6379 48.2824 35.7598L59.4705 46.9479C60.4916 47.969 62.2248 47.6087 62.7543 46.2651L66.6565 36.3634C68.3766 31.9989 67.3433 27.0295 64.026 23.7121ZM39.9999 15.7587C43.4612 15.7587 46.5754 17.2681 48.7226 19.6618L59.4705 8.00682C60.4916 6.98573 60.1313 5.2526 58.7877 4.72307L48.8862 0.820885C44.5213 -0.899271 39.5521 0.13401 36.2348 3.45135L29.4188 10.2671L35.7223 16.5706C37.0845 16.0337 38.5357 15.7582 39.9999 15.7587ZM32.9687 27.4774C32.9687 31.3545 36.1229 34.5087 39.9999 34.5087C43.8769 34.5087 47.0312 31.3545 47.0312 27.4774C47.0312 23.6004 43.8769 20.4462 39.9999 20.4462C36.1229 20.4462 32.9687 23.6003 32.9687 27.4774ZM42.3437 27.4774C42.3437 28.7698 41.2923 29.8212 39.9999 29.8212C38.7076 29.8212 37.6562 28.7698 37.6562 27.4774C37.6562 26.1851 38.7076 25.1337 39.9999 25.1337C41.2923 25.1337 42.3437 26.1849 42.3437 27.4774Z" fill="#C4A878"/>
</svg>
