<svg width="80" height="80" viewBox="0 0 80 80" fill="none" xmlns="http://www.w3.org/2000/svg">
<path fill-rule="evenodd" clip-rule="evenodd" d="M7.58339 66.6717C7.06672 68.6583 6.73339 71.2183 6.66672 73.275C6.65871 73.4946 6.69428 73.7135 6.77137 73.9193C6.84845 74.125 6.96554 74.3134 7.11585 74.4736C7.26616 74.6339 7.44673 74.7627 7.64712 74.8528C7.84752 74.9428 8.06377 74.9923 8.28338 74.9983C8.72403 75.0127 9.15236 74.8516 9.47426 74.5503C9.79615 74.249 9.98527 73.8323 10.0001 73.3917C10.0667 71.2833 10.4167 68.5583 11.0334 66.7783C21.1167 67.3083 27.3334 69.6333 32.9001 71.655C37.3667 73.275 41.4334 74.6983 46.5667 74.9967L46.6667 75C57.2001 75 64.7501 73.8767 69.4001 68.26C69.7501 69.8633 69.9501 71.8083 70.0001 73.3917C70.0155 73.8337 70.206 74.2515 70.5295 74.5531C70.853 74.8547 71.283 75.0155 71.7251 75C72.1671 74.9845 72.5849 74.7941 72.8865 74.4706C73.1881 74.1471 73.3489 73.717 73.3334 73.275C73.2334 70.43 72.6334 66.6533 71.7001 64.65C72.3001 63.4017 72.8167 62.0117 73.2667 60.4583C73.374 60.0854 73.3478 59.6867 73.1926 59.3311C73.0375 58.9754 72.7631 58.685 72.4167 58.51C72.4167 58.51 70.4667 57.5033 68.1334 54.82C65.3667 59.79 59.7167 65.0917 52.0001 66.635C51.7853 66.6788 51.5641 66.6798 51.349 66.6381C51.1339 66.5964 50.9291 66.5127 50.7463 66.3918C50.5635 66.271 50.4063 66.1153 50.2837 65.9336C50.1611 65.752 50.0755 65.548 50.0317 65.3333C49.9879 65.1186 49.9869 64.8974 50.0286 64.6823C50.0703 64.4672 50.154 64.2624 50.2749 64.0796C50.3958 63.8968 50.5515 63.7396 50.7331 63.617C50.9147 63.4944 51.1187 63.4088 51.3334 63.365C58.4334 61.9483 63.9167 56.325 65.8834 51.8383C62.9001 47.22 60.0001 39.7933 60.0001 28.3333C60.0001 22.7917 59.2667 15.5917 54.9001 10.695C51.9167 7.35667 47.2834 5 40.0001 5C32.7167 5 28.0834 7.35667 25.1001 10.695C20.7334 15.5917 20.0001 22.7917 20.0001 28.3333C20.0001 30.5533 20.0167 33.1267 20.3001 35.715C20.2478 35.7845 20.2031 35.8593 20.1667 35.9383C20.1667 35.9383 19.1334 38.1067 18.5334 40.93C18.3001 42.3483 18.2167 43.8933 18.5334 45.345C19.5167 49.895 21.4667 53.0317 24.0167 55.1117C27.8667 58.2717 33.0167 58.9967 37.9167 58.7483C46.4501 58.3183 54.3334 54.8733 54.3334 54.8733C55.1834 54.505 56.1501 54.89 56.5334 55.7333C56.6209 55.9343 56.6679 56.1506 56.6717 56.3698C56.6754 56.589 56.6359 56.8067 56.5554 57.0106C56.4749 57.2145 56.355 57.4005 56.2025 57.558C56.05 57.7155 55.8679 57.8413 55.6667 57.9283C55.6667 57.9283 47.2167 61.6167 38.0834 62.0783C32.3667 62.3667 26.4001 61.3783 21.9001 57.69C19.5334 55.7467 17.5334 53.0533 16.2167 49.3717C11.0667 53.7683 6.38339 58.0267 5.03339 64.67C4.93339 65.16 5.06672 65.6683 5.38339 66.055C5.70005 66.4417 6.16672 66.6667 6.66672 66.6667C6.98339 66.6667 7.28339 66.6683 7.58339 66.6717ZM51.8167 42.6367C50.3167 45.9017 47.7834 48.4067 44.2501 50.1767C43.8563 50.3761 43.5579 50.7238 43.4204 51.1432C43.2829 51.5626 43.3175 52.0195 43.5167 52.4133C43.9167 53.235 44.9167 53.5683 45.7501 53.1567C50.0167 51.02 53.0334 47.97 54.8501 44.03C55.2334 43.1933 54.8667 42.2033 54.0334 41.8183C53.2001 41.435 52.2001 41.8017 51.8167 42.6367ZM26.6667 23.3117V33.3333C26.6667 38.2217 31.6001 45 40.0001 45C48.4001 45 53.3334 38.2217 53.3334 33.3333V23.3117C53.3167 18.425 48.4001 11.6667 40.0001 11.6667C31.6001 11.6667 26.6834 18.425 26.6667 23.3117ZM49.3001 20.5C47.9334 17.6567 44.6167 15 40.0001 15C35.3834 15 32.0667 17.6567 30.7001 20.5C33.2501 19.5083 36.9167 18.3333 40.0001 18.3333C43.0834 18.3333 46.7501 19.5083 49.3001 20.5Z" fill="#C4A878"/>
</svg>
