<svg width="80" height="80" viewBox="0 0 80 80" fill="none" xmlns="http://www.w3.org/2000/svg">
<path d="M41.2126 9.7748C43.2626 9.7748 44.9251 10.2873 46.2751 11.0623C48.8751 11.7748 51.9501 12.8873 54.9501 14.5748C52.7001 8.9623 47.2376 4.9873 40.8251 4.9873H39.2001C32.8001 4.9873 27.3376 8.94981 25.0876 14.5373C32.2501 10.4998 39.9001 9.8248 40.3376 9.7873C40.6626 9.7623 40.9501 9.7623 41.2251 9.7623L41.2126 9.7748Z" fill="#C4A878"/>
<path d="M14.2501 44.7248C14.8626 44.0248 15.7501 43.6124 16.7126 43.6124C17.9501 43.6124 19.0876 44.2999 19.6751 45.3998C20.2001 46.3624 20.8501 47.1999 21.5376 47.9124L21.8001 44.0748C21.8001 44.0748 20.9376 31.2374 43.6626 26.4499C44.2251 26.3249 44.7626 26.1249 45.2501 25.8124C46.7001 24.8999 49.1501 22.6124 48.4501 17.8124C48.4501 17.8124 47.1251 11.8624 40.5126 12.2999C40.5126 12.2999 26.7626 13.3999 19.4876 22.3249C19.4876 22.3249 11.5626 30.6874 13.7626 42.3499C13.7626 42.3499 13.9001 43.2998 14.2501 44.7248Z" fill="#C4A878"/>
<path d="M66.2376 42.3496C68.4376 30.6871 60.5126 22.3246 60.5126 22.3246C57.6126 18.7621 53.6876 16.4746 50.0001 14.9746C50.4501 15.8121 50.7376 16.6121 50.8876 17.2621L50.9126 17.4371C51.8626 23.8496 48.2001 26.9121 46.5876 27.9246C45.9251 28.3371 45.1876 28.6371 44.4001 28.8246C58.8251 34.5246 58.2001 44.0746 58.2001 44.0746L58.7126 51.6121L57.7751 54.8996C55.3876 62.8371 47.9126 68.2871 39.6501 68.1246C32.7126 67.9996 26.5376 63.8746 23.4751 57.6121C22.7626 58.1621 22.1376 58.7746 21.6001 59.3871C23.3626 62.6996 25.9001 65.4371 28.9251 67.3746V73.1871C28.9251 74.1871 29.7376 74.9996 30.7376 74.9996H48.6876C49.6751 74.9996 50.4876 74.1871 50.4876 73.1871V67.7871C54.9376 65.2121 58.4126 61.0621 60.0501 55.9496C60.1001 55.9246 60.1626 55.9121 60.2126 55.8621C64.9001 51.2246 66.2376 42.3496 66.2376 42.3496Z" fill="#C4A878"/>
<path d="M38.0376 45.2874C38.4501 44.7374 38.3501 43.9499 37.8001 43.5374C37.2501 43.1249 36.4626 43.2249 36.0501 43.7749C35.3501 44.6999 34.3001 45.2249 33.1501 45.2249C32.0001 45.2249 30.9501 44.6999 30.2501 43.7749C30.1515 43.6434 30.0278 43.5329 29.8861 43.4496C29.7444 43.3664 29.5876 43.3122 29.4247 43.2901C29.2619 43.268 29.0963 43.2785 28.9376 43.3209C28.7788 43.3634 28.6301 43.437 28.5001 43.5374C27.9501 43.9499 27.8376 44.7374 28.2626 45.2874C29.4376 46.8374 31.2251 47.7249 33.1501 47.7249C35.0751 47.7249 36.8751 46.8374 38.0376 45.2874ZM53.0376 45.2874C53.4501 44.7374 53.3501 43.9499 52.8001 43.5374C52.2501 43.1249 51.4626 43.2249 51.0501 43.7749C50.3501 44.6999 49.3001 45.2249 48.1501 45.2249C47.0001 45.2249 45.9501 44.6999 45.2501 43.7749C45.1515 43.6434 45.0278 43.5329 44.8861 43.4496C44.7444 43.3664 44.5876 43.3122 44.4247 43.2901C44.2619 43.268 44.0963 43.2785 43.9376 43.3209C43.7788 43.3634 43.6301 43.437 43.5001 43.5374C42.9501 43.9499 42.8376 44.7374 43.2626 45.2874C44.4376 46.8374 46.2251 47.7249 48.1501 47.7249C50.0751 47.7249 51.8751 46.8374 53.0376 45.2874ZM40.6376 60.0999C42.3751 60.0999 43.9876 59.5374 45.0751 58.5499C45.3204 58.3278 45.4674 58.0173 45.4838 57.6868C45.5002 57.3562 45.3847 57.0327 45.1626 56.7874C44.9404 56.5421 44.63 56.395 44.2994 56.3786C43.9689 56.3622 43.6454 56.4778 43.4001 56.6999C42.7751 57.2749 41.7376 57.6124 40.6376 57.6124C39.5376 57.6124 38.5001 57.2749 37.8751 56.6999C37.7536 56.5899 37.6116 56.5049 37.4573 56.4498C37.303 56.3947 37.1394 56.3705 36.9757 56.3786C36.812 56.3868 36.6516 56.427 36.5035 56.4972C36.3554 56.5673 36.2225 56.6659 36.1126 56.7874C36.0026 56.9089 35.9176 57.0508 35.8625 57.2051C35.8074 57.3595 35.7832 57.5231 35.7913 57.6868C35.7994 57.8504 35.8397 58.0109 35.9098 58.159C35.98 58.3071 36.0786 58.4399 36.2001 58.5499C37.2876 59.5374 38.9126 60.0999 40.6376 60.0999ZM23.9251 52.8874C22.1501 51.8749 19.2251 49.8374 17.4751 46.5749C17.1501 45.9749 16.3126 45.9374 15.9876 46.5374C15.0501 48.2249 13.1126 50.8999 9.52506 52.8999C8.95006 53.2249 8.92506 54.0499 9.51256 54.3624C11.2501 55.3124 14.1251 57.3124 16.0251 60.8499C16.3376 61.4374 17.1751 61.4749 17.5001 60.8874C18.5126 59.0999 20.5751 56.1374 23.9001 54.3499C24.4876 54.0374 24.5251 53.1999 23.9501 52.8749L23.9251 52.8874ZM70.5501 65.4749C69.2876 64.7124 67.4876 63.3749 66.2876 61.3249C65.9501 60.7499 65.1376 60.7249 64.8001 61.2999C64.0876 62.4874 62.7751 64.1499 60.5376 65.4874C59.9751 65.8249 59.9626 66.6124 60.5251 66.9499C61.7626 67.6749 63.5501 69.0249 64.8376 71.2374C65.1626 71.7999 65.9626 71.8374 66.3001 71.2749C67.0626 70.0124 68.4376 68.1749 70.5126 66.9374C71.0751 66.5999 71.1126 65.8124 70.5501 65.4749Z" fill="#C4A878"/>
</svg>
