<svg width="80" height="80" viewBox="0 0 80 80" fill="none" xmlns="http://www.w3.org/2000/svg">
<path d="M68.3332 38.3335V70.0002C68.3332 70.4422 68.1576 70.8661 67.8451 71.1787C67.5325 71.4912 67.1086 71.6668 66.6665 71.6668H36.6665V46.6668C36.6665 46.2248 36.491 45.8009 36.1784 45.4883C35.8658 45.1758 35.4419 45.0002 34.9999 45.0002H21.6665C21.2245 45.0002 20.8006 45.1758 20.488 45.4883C20.1755 45.8009 19.9999 46.2248 19.9999 46.6668V71.6668H13.3332C12.8912 71.6668 12.4673 71.4912 12.1547 71.1787C11.8421 70.8661 11.6665 70.4422 11.6665 70.0002V38.3335H12.2332C14.6665 38.3335 16.8999 37.1418 18.2832 35.2502C18.3165 35.2835 18.3415 35.3335 18.3665 35.3752C19.0652 36.2975 19.9686 37.0449 21.0055 37.5583C22.0424 38.0717 23.1845 38.3371 24.3415 38.3335H26.4415C28.9665 38.3335 31.2082 37.0835 32.5749 35.1502C32.6832 35.2835 32.7915 35.4252 32.9082 35.5585C33.6894 36.4319 34.6463 37.1306 35.7161 37.6088C36.786 38.087 37.9447 38.334 39.1165 38.3335H40.8832C42.0551 38.334 43.2138 38.087 44.2836 37.6088C45.3535 37.1306 46.3103 36.4319 47.0915 35.5585C47.2082 35.4252 47.3165 35.2835 47.4249 35.1502C48.1168 36.1339 49.0353 36.9367 50.1028 37.4908C51.1703 38.0448 52.3555 38.3339 53.5582 38.3335H55.6582C58.0249 38.3335 60.1999 37.2502 61.6332 35.3752C61.6582 35.3335 61.6832 35.2835 61.7165 35.2502C62.4121 36.203 63.3223 36.9786 64.3733 37.5143C65.4244 38.05 66.5868 38.3306 67.7665 38.3335H68.3332ZM59.9999 60.0002V46.6668C59.9999 46.2248 59.8243 45.8009 59.5117 45.4883C59.1992 45.1758 58.7752 45.0002 58.3332 45.0002H46.6665C46.2245 45.0002 45.8006 45.1758 45.488 45.4883C45.1755 45.8009 44.9999 46.2248 44.9999 46.6668V60.0002C44.9999 60.4422 45.1755 60.8661 45.488 61.1787C45.8006 61.4912 46.2245 61.6668 46.6665 61.6668H58.3332C58.7752 61.6668 59.1992 61.4912 59.5117 61.1787C59.8243 60.8661 59.9999 60.4422 59.9999 60.0002ZM18.249 8.3335C17.6043 8.3335 16.9735 8.52047 16.4329 8.87176C15.8923 9.22304 15.4651 9.72355 15.2032 10.3127L6.83321 29.1418C6.22988 30.5043 6.37571 32.0002 7.23321 33.2235C8.03988 34.3735 9.40738 35.0002 10.8115 35.0002H12.2332C14.0999 35.0002 15.7499 33.7418 16.2499 31.9502L20.1082 18.0418L22.8082 8.3335H18.249ZM26.2665 8.3335L20.3249 29.7168C19.9749 30.9835 20.2332 32.3085 21.0249 33.3585C21.8165 34.4002 23.0249 35.0002 24.3415 35.0002H26.4415C28.5749 35.0002 30.3499 33.4085 30.5832 31.2918L33.1415 8.3335H26.2665ZM43.5082 8.3335H36.4915L34.1415 29.4502C33.9915 30.8585 34.4415 32.2752 35.3915 33.3335C36.3499 34.4085 37.6749 35.0002 39.1165 35.0002H40.8832C42.3249 35.0002 43.6499 34.4085 44.6082 33.3335C45.0766 32.8097 45.4299 32.1934 45.6453 31.5245C45.8606 30.8555 45.9331 30.1489 45.8582 29.4502L43.5082 8.3335ZM53.7332 8.3335H46.8582L49.4165 31.2918C49.5269 32.3124 50.0111 33.256 50.7758 33.9407C51.5406 34.6254 52.5317 35.0028 53.5582 35.0002H55.6582C56.9749 35.0002 58.1832 34.4002 58.9749 33.3585C59.7665 32.3085 60.0249 30.9835 59.6749 29.7168L53.7332 8.3335ZM64.7965 10.3127C64.5346 9.72355 64.1075 9.22304 63.5669 8.87176C63.0263 8.52047 62.3954 8.3335 61.7507 8.3335H57.1915L59.8915 18.0418L63.7499 31.9502C64.2499 33.7418 65.8999 35.0002 67.7665 35.0002H69.1882C70.5932 35.0002 71.9607 34.3735 72.7665 33.2235C73.6249 32.0002 73.7699 30.5035 73.1665 29.1418L64.7965 10.3127Z" fill="#C4A878"/>
</svg>
