<svg width="80" height="80" viewBox="0 0 80 80" fill="none" xmlns="http://www.w3.org/2000/svg">
<path fill-rule="evenodd" clip-rule="evenodd" d="M45.3125 32.0312C46.7188 31.875 48.125 31.5625 49.5313 31.0938C49.5313 30.7812 49.375 30.3125 49.375 29.8438C49.375 26.4062 52.1875 23.5938 55.625 23.5938C57.5 23.5938 59.0625 24.375 60.1563 25.625C61.4063 24.6875 62.3438 23.75 63.4375 22.6562C63.125 22.3438 62.8125 22.0312 62.6563 21.5625C60.9375 18.5938 61.875 14.8438 64.8438 13.125C66.4063 12.3438 67.9688 12.0312 69.6875 12.5H69.8438C71.25 8.90625 72.0313 5 72.0313 1.09375C72.0313 0.46875 72.5 0 73.125 0C73.75 0 74.2188 0.46875 74.2188 1.09375C74.2188 5.3125 73.4375 9.53125 71.7188 13.5938C72.5 14.0625 72.9688 14.6875 73.4375 15.3125C74.2188 16.875 74.5313 18.4375 74.0625 20.1562C73.5938 21.7188 72.5 22.9688 71.0938 23.9062C70.1563 24.375 69.0625 24.6875 67.9688 24.6875C67.5 24.6875 66.875 24.6875 66.4063 24.5312C65.9375 24.375 65.4688 24.2188 65.1563 24.0625C63.9063 25.1562 62.8125 26.4062 61.4063 27.3438C61.7188 28.125 61.875 28.9062 61.875 29.8438C61.875 33.2812 59.0625 36.0938 55.625 36.0938C53.4375 36.0938 51.5625 34.8438 50.4688 33.125C48.75 33.5938 47.1875 34.0625 45.4688 34.2188C45.4688 35 45.1563 35.7812 44.6875 36.5625C43.9063 37.9688 42.5 39.0625 40.9375 39.5312H40.4688V41.5625C40.625 41.5625 40.7813 41.7188 41.0938 41.7188C41.875 42.1875 42.5 42.9688 42.6563 43.9062C42.9688 44.8438 42.8125 45.7812 42.3438 46.5625C42.0313 47.1875 41.5625 47.6562 40.9375 47.9688C41.25 48.75 41.7188 49.375 42.0313 50.3125C45.1563 56.0938 49.375 63.9062 49.375 68.125C49.375 74.6875 44.8438 80 39.375 80C33.75 80 29.375 74.6875 29.375 68.125C29.375 63.9062 33.4375 56.0938 36.5625 50.3125C37.0313 49.5312 37.3438 48.75 37.6563 47.9688H37.5C36.7188 47.5 36.0938 46.7188 35.9375 45.7812C35.625 44.8438 35.7813 43.9062 36.25 43.125C36.7188 42.3438 37.3438 41.7188 38.2813 41.4062V39.6875C37.5 39.5312 36.875 39.2188 36.25 38.9062C34.6875 37.9688 33.75 36.7188 33.2813 35.1562C33.125 34.6875 33.125 34.2188 33.125 33.75C31.4063 33.2812 29.8438 32.8125 28.2813 32.1875C27.8125 32.8125 27.1875 33.4375 26.4063 33.9062C25.4688 34.375 24.375 34.6875 23.2813 34.6875C22.8125 34.6875 22.1875 34.5312 21.7188 34.5312C20.1563 34.0625 18.75 32.9688 17.9688 31.5625C16.875 29.6875 16.875 27.3438 17.8125 25.625C16.5625 24.375 15.4688 23.125 14.375 21.875C13.5938 22.1875 12.8125 22.3438 12.0313 22.3438C8.59375 22.3438 5.78125 19.5312 5.78125 16.0938C5.78125 13.9062 6.875 11.875 8.59375 10.7812C7.65625 7.65625 7.1875 4.375 7.1875 1.09375C7.1875 0.46875 7.65625 0 8.28125 0C8.90625 0 9.375 0.46875 9.375 1.09375C9.375 4.21875 9.84375 7.1875 10.625 10C11.0938 10 11.5625 9.84375 12.0313 9.84375C15.4688 9.84375 18.125 12.6562 18.125 16.0938C18.125 17.8125 17.5 19.5312 16.25 20.625C17.1875 21.7188 18.125 22.8125 19.2188 23.75C19.5313 23.5938 19.8438 23.2812 20.1563 23.125C21.7188 22.1875 23.2813 22.0312 25 22.5C26.5625 22.8125 27.8125 23.9062 28.75 25.3125C29.5313 26.875 29.6875 28.5938 29.2188 30.3125C30.625 30.7812 32.0313 31.25 33.4375 31.5625C33.5938 31.0938 33.75 30.7812 33.9063 30.3125C34.6875 28.9062 36.0938 27.9688 37.6563 27.5C39.375 27.0312 40.9375 27.1875 42.5 28.125C43.9063 28.9062 45 30.4688 45.3125 32.0312ZM39.375 74.0625C36.4063 74.0625 34.6875 70.4688 34.6875 67.8125C34.6875 66.25 35.7813 63.4375 38.4375 58.2812C38.5938 57.8125 38.9063 57.6562 39.375 57.6562C39.6875 57.6562 40 57.9688 40.1563 58.2812C42.6563 63.2812 43.9063 66.25 43.9063 67.8125C43.9063 70.4688 42.3438 74.0625 39.375 74.0625ZM38.125 44.2188C37.9688 44.5312 37.9688 44.8438 37.9688 45.1562C38.125 45.625 38.2813 45.7812 38.5938 46.0938C39.2188 46.4062 40.1563 46.25 40.4688 45.4688C40.625 45.1562 40.625 44.8438 40.625 44.5312C40.4688 44.2188 40.3125 43.9062 40 43.75C39.6875 43.4375 39.2188 43.4375 38.9063 43.5938C38.5938 43.5938 38.2813 43.9062 38.125 44.2188Z" fill="#C4A878"/>
</svg>
