<svg width="80" height="80" viewBox="0 0 80 80" fill="none" xmlns="http://www.w3.org/2000/svg">
<path d="M56.6059 29.0436H50.4484V16.8752C50.4484 16.2272 49.9235 15.7023 49.2755 15.7023C48.6275 15.7023 48.1026 16.2272 48.1026 16.8752V29.0436H32.269V16.8752C32.269 16.2272 31.7442 15.7023 31.0962 15.7023C30.4482 15.7023 29.9233 16.2272 29.9233 16.8752V29.0436H23.7658C23.1178 29.0436 22.5929 29.5685 22.5929 30.2165C22.5929 30.8645 23.1178 31.3893 23.7658 31.3893H24.792V44.4374C24.792 52.926 31.6973 59.8312 40.1858 59.8312C48.6744 59.8312 55.5796 52.926 55.5796 44.4374V31.3893H56.6059C57.2539 31.3893 57.7787 30.8645 57.7787 30.2165C57.7787 29.5685 57.2539 29.0436 56.6059 29.0436ZM44.7386 44.4054L41.235 51.4127C41.0944 51.6884 40.8505 51.8974 40.5566 51.9941C40.2626 52.0908 39.9423 52.0674 39.6655 51.929C39.3887 51.7905 39.1778 51.5483 39.0788 51.2551C38.9798 50.9619 39.0007 50.6414 39.137 50.3636L41.3826 45.8725C41.5776 45.4826 41.294 45.0238 40.858 45.0238H36.701C35.7565 45.0238 35.2409 44.0814 35.6184 43.3264L39.137 36.2893C39.2776 36.0135 39.5214 35.8046 39.8154 35.7079C40.1094 35.6112 40.4297 35.6346 40.7065 35.773C40.9833 35.9114 41.1941 36.1536 41.2931 36.4468C41.3921 36.7401 41.3712 37.0605 41.235 37.3384L38.9894 41.8294C38.7944 42.2194 39.0779 42.6781 39.5139 42.6781H43.7044C44.5449 42.6781 45.1626 43.5575 44.7386 44.4054ZM73.0325 49.1271C72.7297 49.0561 72.4674 48.8676 72.3035 48.6033C72.1396 48.3389 72.0874 48.0203 72.1584 47.7175C72.2037 47.525 72.2471 47.3314 72.2889 47.1376C72.4252 46.5044 73.0489 46.1023 73.6824 46.2377C73.9865 46.3033 74.2521 46.4869 74.4209 46.7482C74.5896 47.0095 74.6477 47.3271 74.5823 47.6313C74.5375 47.839 74.4909 48.0463 74.4424 48.2532C74.2942 48.8842 73.6623 49.2752 73.0325 49.1271ZM18.7005 68.0521C10.3382 61.5956 5.01705 51.5073 5.00004 40.2393C4.97101 20.8154 20.7615 5 40.1858 5C59.5927 5 75.3716 20.6968 75.3716 40.1858C75.3716 40.4969 75.2481 40.7952 75.0281 41.0151C74.8081 41.2351 74.5098 41.3587 74.1988 41.3587C73.8877 41.3587 73.5894 41.2351 73.3694 41.0151C73.1495 40.7952 73.0259 40.4969 73.0259 40.1858C73.0259 22.0779 58.2941 7.34587 40.1861 7.34572C31.4274 7.34572 23.1805 10.7738 16.9648 16.9988C2.96073 31.0236 4.42226 54.0644 20.1339 66.1954C20.2558 66.2895 20.358 66.4067 20.4347 66.5403C20.5113 66.674 20.5608 66.8214 20.5805 66.9741C20.6001 67.1269 20.5895 67.282 20.5492 67.4307C20.5088 67.5794 20.4396 67.7186 20.3454 67.8405C20.2514 67.9624 20.1342 68.0646 20.0006 68.1413C19.867 68.2179 19.7196 68.2674 19.5668 68.2871C19.414 68.3067 19.2589 68.2961 19.1103 68.2558C18.9616 68.2154 18.8224 68.1462 18.7005 68.0521ZM73.0919 52.6709C68.6365 64.4083 58.1819 72.9364 45.8112 74.9244C42.2301 75.4984 39.013 72.7288 39.013 69.1334V64.9625H37.6935C37.0455 64.9625 36.5206 64.4376 36.5206 63.7896V63.1841C36.5206 62.4775 37.1423 61.9291 37.843 62.023C39.3824 62.2268 40.9599 62.2312 42.5316 62.0215C43.2309 61.9291 43.851 62.4789 43.851 63.1856V63.7896C43.851 64.4376 43.3262 64.9625 42.6782 64.9625H41.3587V69.1334C41.3587 71.306 43.3046 72.9515 45.4388 72.608C56.9841 70.752 66.7394 62.7941 70.8986 51.8382C71.1288 51.2327 71.8061 50.9277 72.4116 51.1579C73.0171 51.3881 73.3221 52.0654 73.0919 52.6709Z" fill="#C4A878"/>
</svg>
