<svg width="80" height="80" viewBox="0 0 80 80" fill="none" xmlns="http://www.w3.org/2000/svg">
<path fill-rule="evenodd" clip-rule="evenodd" d="M60.0394 15.4947C60.0877 15.2794 60.1286 15.0624 60.1618 14.8443C60.3952 13.3894 60.766 9.58771 59.1324 5.81741C57.1959 6.78895 51.1598 8.78995 38.98 4.72175C38.6043 4.62575 20.9329 0.137149 19.5377 14.7797L25.6781 22.0621C26.9459 22.5901 36.3252 26.3488 44.9598 25.4269V25.4253C45.0121 25.4193 45.0648 25.4193 45.1171 25.4253C45.7228 25.4484 51.4312 25.5841 55.6666 22.5437C55.6926 22.5213 55.7203 22.5008 55.7494 22.4825C57.7686 21.0062 59.4402 18.7983 60.041 15.4947H60.0394ZM17.3182 41.4167L17.0137 41.4631L16.7075 41.3638C15.8055 41.0741 15.7012 40.2549 15.625 39.4819C15.5522 38.7454 15.496 38.0039 15.4297 37.2674C15.1316 33.9783 14.758 30.6965 14.3093 27.4246C14.2329 26.8527 14.1733 26.2787 14.1305 25.7033C13.965 23.5236 13.9815 21.0442 14.4946 18.9108C14.9266 17.1051 15.8203 15.2647 17.5863 14.5778L18.1126 15.2233L18.783 16.0492L18.7979 16.0359L24.8422 23.2025L25.1153 23.315L24.3705 23.5236C23.7813 23.6891 23.2054 23.9208 22.6807 24.2369C21.9806 24.6573 21.3897 25.2101 20.9677 25.9152C19.2894 28.7189 18.7532 34.4058 18.4255 37.6812C18.3791 38.1347 18.4188 38.5567 18.4999 39.0053C18.634 39.75 18.778 40.47 18.1077 41.0609C17.9524 41.2065 17.7637 41.3116 17.5582 41.3671L17.4324 41.4051L17.3182 41.4167Z" fill="#C4A878"/>
<path fill-rule="evenodd" clip-rule="evenodd" d="M62.1801 41.4202L62.0543 41.4086L61.9136 41.3656C61.7106 41.3096 61.5243 41.2051 61.3707 41.061C60.7004 40.4718 60.8444 39.7502 60.9785 39.0038C61.0596 38.5569 61.0993 38.1349 61.0546 37.6797C60.7252 34.4043 60.189 28.719 58.5124 25.9153C58.2145 25.4188 57.8288 24.9918 57.3753 24.6343C57.128 24.4407 56.8651 24.268 56.5892 24.1179L56.0662 23.8316C56.1587 23.7639 56.2503 23.695 56.3409 23.6247C58.6878 22.049 60.1691 19.7269 60.9106 17.0805L61.4171 14.6524L61.4502 14.4307L61.6041 14.4787C63.5885 15.0844 64.5336 17.0325 64.9854 18.9093C65.4985 21.0444 65.5134 23.5204 65.3479 25.7002C65.3049 26.2761 65.2469 26.8521 65.1692 27.4248C64.7212 30.6929 64.3482 33.9708 64.0503 37.256C63.9841 37.9942 63.9278 38.7356 63.855 39.4738C63.7805 40.2236 63.6895 41.0131 62.8454 41.3391L62.5144 41.4665L62.1801 41.4202Z" fill="#C4A878"/>
<path fill-rule="evenodd" clip-rule="evenodd" d="M64.8162 56.8677C65.8423 52.49 65.9085 48.1007 65.3888 44.582C64.8923 41.2156 63.8976 38.7065 62.7357 37.8789C60.5891 38.7213 58.4987 41.2189 57.0736 44.0557C55.5841 47.0183 54.8442 50.3004 55.5427 52.4106L55.5477 52.4271C55.5759 52.5134 55.5867 52.6044 55.5795 52.6949C55.5723 52.7854 55.5471 52.8735 55.5056 52.9542C55.464 53.0349 55.4068 53.1065 55.3373 53.1649C55.2678 53.2233 55.1874 53.2673 55.1008 53.2944C54.9998 53.327 54.8928 53.3365 54.7877 53.3221C54.6825 53.3078 54.5819 53.2701 54.4934 53.2117C47.4344 49.0905 43.6194 47.0315 39.9153 47.0315C36.203 47.0315 32.383 49.0988 25.3009 53.2299V53.2315C25.1417 53.3245 24.9525 53.3515 24.7736 53.3066C24.5948 53.2618 24.4407 53.1487 24.3443 52.9915C24.2904 52.9022 24.2579 52.8017 24.2493 52.6978C24.2407 52.5938 24.2562 52.4893 24.2946 52.3924C24.9782 50.2838 24.1986 47.0133 22.6759 44.0607C21.2112 41.2222 19.0794 38.7213 16.9262 37.8789C15.7792 38.6965 14.801 41.1692 14.3128 44.491C13.7964 47.9998 13.8709 52.3924 14.9036 56.7784C15.9331 61.1445 17.9109 65.4974 21.2046 68.9499C25.2264 73.1687 31.2344 76.0552 39.9104 75.9989V75.9956C39.9319 75.9956 39.9551 75.9956 39.9766 75.9989C48.5863 76.0436 54.5513 73.182 58.545 68.9995C61.8271 65.5636 63.795 61.2239 64.8162 56.8677ZM39.9402 56.8264H34.2582C33.9554 56.8264 33.6839 56.78 33.4655 56.6956C33.3145 56.647 33.1795 56.5583 33.0749 56.4391L33.0633 56.4225L33.0649 56.4209L33.0434 56.3894C33.055 56.3563 33.1013 56.3067 33.1841 56.2471L33.2304 56.2173L35.3274 54.8651L38.9124 52.5513C39.0455 52.4668 39.1914 52.4042 39.3443 52.3659C39.5181 52.3212 39.7184 52.298 39.9402 52.298C40.1619 52.298 40.3622 52.3212 40.536 52.3642C40.6885 52.4032 40.8338 52.4663 40.9663 52.5513L44.5529 54.8651L46.6499 56.2173L46.6962 56.2471C46.7823 56.31 46.8286 56.3596 46.8386 56.3927C46.8386 56.396 46.8303 56.401 46.8154 56.4225L46.7989 56.4473C46.6945 56.5619 46.5622 56.6475 46.4149 56.6956C46.1964 56.7784 45.925 56.8247 45.6204 56.8247L39.9402 56.8264Z" fill="#C4A878"/>
</svg>
