<svg width="32" height="32" viewBox="0 0 32 32" fill="none" xmlns="http://www.w3.org/2000/svg">
<path fill-rule="evenodd" clip-rule="evenodd" d="M13.9999 2.66675C12.1926 2.6669 10.4117 3.09923 8.80553 3.92767C7.19938 4.75611 5.81464 5.95664 4.76683 7.42909C3.71902 8.90153 3.03853 10.6032 2.78213 12.3921C2.52573 14.1811 2.70085 16.0054 3.29289 17.7129C3.88493 19.4203 4.87671 20.9615 6.1855 22.2077C7.49429 23.4539 9.08212 24.3691 10.8165 24.8769C12.5509 25.3846 14.3816 25.4703 16.1559 25.1266C17.9301 24.783 19.5964 24.02 21.0159 22.9014L25.8852 27.7707C26.1367 28.0136 26.4735 28.148 26.8231 28.145C27.1726 28.1419 27.5071 28.0017 27.7543 27.7545C28.0015 27.5073 28.1417 27.1729 28.1447 26.8233C28.1478 26.4737 28.0134 26.1369 27.7705 25.8854L22.9012 21.0161C24.2185 19.3449 25.0387 17.3366 25.268 15.221C25.4972 13.1055 25.1262 10.9681 24.1975 9.05354C23.2687 7.13897 21.8197 5.52456 20.0163 4.39506C18.2128 3.26556 16.1278 2.66661 13.9999 2.66675ZM5.33318 14.0001C5.33318 11.7015 6.24628 9.49714 7.87159 7.87182C9.49691 6.24651 11.7013 5.33341 13.9999 5.33341C16.2984 5.33341 18.5028 6.24651 20.1281 7.87182C21.7534 9.49714 22.6665 11.7015 22.6665 14.0001C22.6665 16.2986 21.7534 18.503 20.1281 20.1283C18.5028 21.7537 16.2984 22.6667 13.9999 22.6667C11.7013 22.6667 9.49691 21.7537 7.87159 20.1283C6.24628 18.503 5.33318 16.2986 5.33318 14.0001Z" fill="white"/>
</svg>
