<svg width="80" height="80" viewBox="0 0 80 80" fill="none" xmlns="http://www.w3.org/2000/svg">
<path fill-rule="evenodd" clip-rule="evenodd" d="M62.1433 28.7133L52.1433 12.0466C51.7987 11.4852 51.2464 11.0825 50.6065 10.926C49.9666 10.7696 49.2908 10.872 48.726 11.2111C48.1612 11.5501 47.753 12.0984 47.5902 12.7367C47.4274 13.3751 47.5232 14.0518 47.8566 14.62L57.8566 31.2866C58.2013 31.8481 58.7536 32.2508 59.3935 32.4072C60.0334 32.5637 60.7092 32.4613 61.274 32.1222C61.8388 31.7832 62.2469 31.2349 62.4097 30.5965C62.5725 29.9582 62.4768 29.2814 62.1433 28.7133ZM22.1433 31.2866L32.1433 14.62C32.4768 14.0518 32.5725 13.3751 32.4097 12.7367C32.2469 12.0984 31.8388 11.5501 31.274 11.2111C30.7092 10.872 30.0334 10.7696 29.3935 10.926C28.7536 11.0825 28.2013 11.4852 27.8566 12.0466L17.8566 28.7133C17.5232 29.2814 17.4274 29.9582 17.5902 30.5965C17.753 31.2349 18.1612 31.7832 18.726 32.1222C19.2908 32.4613 19.9666 32.5637 20.6065 32.4072C21.2464 32.2508 21.7987 31.8481 22.1433 31.2866Z" fill="#C4A878"/>
<path fill-rule="evenodd" clip-rule="evenodd" d="M72.4668 30.4033C72.5253 30.0457 72.5053 29.6796 72.4083 29.3305C72.3112 28.9814 72.1394 28.6575 71.9048 28.3813C71.6702 28.1052 71.3783 27.8833 71.0494 27.7311C70.7206 27.5789 70.3625 27.5001 70.0001 27.5H10.0001C9.63777 27.5001 9.27975 27.5789 8.95087 27.7311C8.622 27.8833 8.33014 28.1052 8.09551 28.3813C7.86088 28.6575 7.68909 28.9814 7.59205 29.3305C7.495 29.6796 7.47502 30.0457 7.53348 30.4033L12.6168 61.48C12.9679 63.6261 14.0706 65.5775 15.7278 66.9856C17.385 68.3937 19.4888 69.1667 21.6635 69.1667H58.3368C60.5115 69.1667 62.6153 68.3937 64.2725 66.9856C65.9297 65.5775 67.0324 63.6261 67.3835 61.48L72.4668 30.4033ZM37.5002 41.6667V55C37.5002 55.663 37.7635 56.2989 38.2324 56.7678C38.7012 57.2366 39.3371 57.5 40.0002 57.5C40.6632 57.5 41.2991 57.2366 41.7679 56.7678C42.2368 56.2989 42.5002 55.663 42.5002 55V41.6667C42.5002 41.0036 42.2368 40.3677 41.7679 39.8989C41.2991 39.4301 40.6632 39.1667 40.0002 39.1667C39.3371 39.1667 38.7012 39.4301 38.2324 39.8989C37.7635 40.3677 37.5002 41.0036 37.5002 41.6667ZM50.8335 41.6667V55C50.8335 55.663 51.0969 56.2989 51.5657 56.7678C52.0346 57.2366 52.6704 57.5 53.3335 57.5C53.9965 57.5 54.6324 57.2366 55.1013 56.7678C55.5701 56.2989 55.8335 55.663 55.8335 55V41.6667C55.8335 41.0036 55.5701 40.3677 55.1013 39.8989C54.6324 39.4301 53.9965 39.1667 53.3335 39.1667C52.6704 39.1667 52.0346 39.4301 51.5657 39.8989C51.0969 40.3677 50.8335 41.0036 50.8335 41.6667ZM24.1668 41.6667V55C24.1668 55.663 24.4302 56.2989 24.899 56.7678C25.3679 57.2366 26.0038 57.5 26.6668 57.5C27.3299 57.5 27.9657 57.2366 28.4346 56.7678C28.9034 56.2989 29.1668 55.663 29.1668 55V41.6667C29.1668 41.0036 28.9034 40.3677 28.4346 39.8989C27.9657 39.4301 27.3299 39.1667 26.6668 39.1667C26.0038 39.1667 25.3679 39.4301 24.899 39.8989C24.4302 40.3677 24.1668 41.0036 24.1668 41.6667Z" fill="#C4A878"/>
<path fill-rule="evenodd" clip-rule="evenodd" d="M73.3334 27.5H6.66675C6.00371 27.5 5.36782 27.7634 4.89898 28.2322C4.43014 28.7011 4.16675 29.337 4.16675 30C4.16675 30.663 4.43014 31.2989 4.89898 31.7678C5.36782 32.2366 6.00371 32.5 6.66675 32.5H73.3334C73.9965 32.5 74.6323 32.2366 75.1012 31.7678C75.57 31.2989 75.8334 30.663 75.8334 30C75.8334 29.337 75.57 28.7011 75.1012 28.2322C74.6323 27.7634 73.9965 27.5 73.3334 27.5Z" fill="#C4A878"/>
</svg>
