<svg width="25" height="25" viewBox="0 0 25 25" fill="none" xmlns="http://www.w3.org/2000/svg">
<path d="M20.8333 4.1665H4.16659C3.02075 4.1665 2.09367 5.104 2.09367 6.24984L2.08325 18.7498C2.08325 19.8957 3.02075 20.8332 4.16659 20.8332H20.8333C21.9791 20.8332 22.9166 19.8957 22.9166 18.7498V6.24984C22.9166 5.104 21.9791 4.1665 20.8333 4.1665ZM20.4166 8.59359L13.052 13.1978C12.7187 13.4061 12.2812 13.4061 11.9478 13.1978L4.58325 8.59359C4.4788 8.53495 4.38733 8.45573 4.31439 8.36073C4.24144 8.26572 4.18853 8.1569 4.15885 8.04085C4.12918 7.9248 4.12336 7.80394 4.14175 7.68557C4.16014 7.56721 4.20235 7.45381 4.26584 7.35223C4.32932 7.25066 4.41276 7.16302 4.51109 7.09462C4.60943 7.02623 4.72062 6.97849 4.83793 6.95431C4.95525 6.93014 5.07626 6.93001 5.19362 6.95395C5.31099 6.97789 5.42228 7.02539 5.52075 7.09359L12.4999 11.4582L19.4791 7.09359C19.5776 7.02539 19.6888 6.97789 19.8062 6.95395C19.9236 6.93001 20.0446 6.93014 20.1619 6.95431C20.2792 6.97849 20.3904 7.02623 20.4887 7.09462C20.5871 7.16302 20.6705 7.25066 20.734 7.35223C20.7975 7.45381 20.8397 7.56721 20.8581 7.68557C20.8765 7.80394 20.8707 7.9248 20.841 8.04085C20.8113 8.1569 20.7584 8.26572 20.6855 8.36073C20.6125 8.45573 20.521 8.53495 20.4166 8.59359Z" fill="#B59255"/>
</svg>
