<svg width="40" height="40" viewBox="0 0 40 40" fill="none" xmlns="http://www.w3.org/2000/svg">
<path d="M20.5922 10.8574C21.6301 10.8602 22.1569 10.8657 22.6118 10.8786L22.7908 10.8851C22.9974 10.8925 23.2013 10.9017 23.4477 10.9128C24.4293 10.9589 25.0992 11.1139 25.6869 11.3418C26.2958 11.5761 26.8088 11.8935 27.3217 12.4056C27.7911 12.8666 28.1541 13.4246 28.3855 14.0405C28.6134 14.6282 28.7684 15.298 28.8145 16.2806C28.8256 16.526 28.8348 16.7299 28.8422 16.9375L28.8478 17.1165C28.8616 17.5704 28.8671 18.0972 28.869 19.1352L28.8699 19.8234V21.0321C28.8721 21.705 28.8651 22.378 28.8487 23.0508L28.8431 23.2297C28.8358 23.4373 28.8265 23.6412 28.8155 23.8866C28.7693 24.8692 28.6125 25.5381 28.3855 26.1268C28.1541 26.7426 27.7911 27.3006 27.3217 27.7616C26.8607 28.231 26.3027 28.594 25.6869 28.8254C25.0992 29.0533 24.4293 29.2083 23.4477 29.2544L22.7908 29.2821L22.6118 29.2877C22.1569 29.3006 21.6301 29.307 20.5922 29.3089L19.9039 29.3098H18.6962C18.0229 29.3122 17.3496 29.3051 16.6766 29.2886L16.4976 29.283C16.2786 29.2748 16.0596 29.2652 15.8407 29.2544C14.859 29.2083 14.1892 29.0533 13.6006 28.8254C12.985 28.5939 12.4274 28.2309 11.9666 27.7616C11.4969 27.3007 11.1336 26.7427 10.9019 26.1268C10.674 25.5391 10.519 24.8692 10.4729 23.8866L10.4452 23.2297L10.4406 23.0508C10.4236 22.378 10.4159 21.705 10.4175 21.0321V19.1352C10.415 18.4622 10.4217 17.7892 10.4378 17.1165L10.4443 16.9375C10.4517 16.7299 10.4609 16.526 10.472 16.2806C10.5181 15.298 10.6731 14.6291 10.901 14.0405C11.1332 13.4243 11.4972 12.8664 11.9675 12.4056C12.428 11.9365 12.9853 11.5734 13.6006 11.3418C14.1892 11.1139 14.8581 10.9589 15.8407 10.9128C16.0861 10.9017 16.2909 10.8925 16.4976 10.8851L16.6766 10.8796C17.3493 10.8632 18.0223 10.8561 18.6953 10.8583L20.5922 10.8574ZM19.6437 15.4705C18.4202 15.4705 17.2469 15.9565 16.3818 16.8217C15.5166 17.6868 15.0306 18.8601 15.0306 20.0836C15.0306 21.3071 15.5166 22.4804 16.3818 23.3456C17.2469 24.2107 18.4202 24.6967 19.6437 24.6967C20.8672 24.6967 22.0405 24.2107 22.9057 23.3456C23.7708 22.4804 24.2568 21.3071 24.2568 20.0836C24.2568 18.8601 23.7708 17.6868 22.9057 16.8217C22.0405 15.9565 20.8672 15.4705 19.6437 15.4705ZM19.6437 17.3158C20.0072 17.3157 20.3671 17.3872 20.703 17.5263C21.0388 17.6653 21.3439 17.8691 21.601 18.1261C21.8581 18.3831 22.062 18.6882 22.2012 19.024C22.3403 19.3598 22.412 19.7197 22.412 20.0832C22.4121 20.4466 22.3406 20.8066 22.2015 21.1424C22.0625 21.4782 21.8586 21.7834 21.6017 22.0405C21.3447 22.2975 21.0396 22.5014 20.7038 22.6406C20.368 22.7798 20.0081 22.8514 19.6446 22.8515C18.9105 22.8515 18.2065 22.5599 17.6875 22.0408C17.1684 21.5217 16.8768 20.8177 16.8768 20.0836C16.8768 19.3495 17.1684 18.6455 17.6875 18.1264C18.2065 17.6074 18.9105 17.3158 19.6446 17.3158M24.4884 14.0866C24.1825 14.0866 23.8892 14.2081 23.6729 14.4244C23.4566 14.6407 23.3351 14.934 23.3351 15.2399C23.3351 15.5457 23.4566 15.8391 23.6729 16.0554C23.8892 16.2716 24.1825 16.3931 24.4884 16.3931C24.7942 16.3931 25.0876 16.2716 25.3039 16.0554C25.5201 15.8391 25.6417 15.5457 25.6417 15.2399C25.6417 14.934 25.5201 14.6407 25.3039 14.4244C25.0876 14.2081 24.7942 14.0866 24.4884 14.0866Z" fill="#B59255"/>
<circle cx="20" cy="20" r="19.6" stroke="#B59255" stroke-width="0.8"/>
</svg>
