<svg width="28" height="28" viewBox="0 0 28 28" fill="none" xmlns="http://www.w3.org/2000/svg">
<path fill-rule="evenodd" clip-rule="evenodd" d="M13.1391 25.8232C13.1391 25.8232 4.66675 18.6878 4.66675 11.6668C4.66675 9.19148 5.65008 6.81751 7.40042 5.06717C9.15076 3.31683 11.5247 2.3335 14.0001 2.3335C16.4754 2.3335 18.8494 3.31683 20.5997 5.06717C22.3501 6.81751 23.3334 9.19148 23.3334 11.6668C23.3334 18.6878 14.8611 25.8232 14.8611 25.8232C14.3897 26.2572 13.6139 26.2525 13.1391 25.8232ZM14.0001 15.7502C14.5363 15.7502 15.0673 15.6445 15.5627 15.4393C16.0581 15.2341 16.5083 14.9334 16.8874 14.5542C17.2666 14.175 17.5674 13.7249 17.7726 13.2295C17.9778 12.734 18.0834 12.2031 18.0834 11.6668C18.0834 11.1306 17.9778 10.5996 17.7726 10.1042C17.5674 9.60879 17.2666 9.15865 16.8874 8.77948C16.5083 8.4003 16.0581 8.09953 15.5627 7.89432C15.0673 7.68911 14.5363 7.5835 14.0001 7.5835C12.9171 7.5835 11.8785 8.0137 11.1127 8.77948C10.347 9.54525 9.91675 10.5839 9.91675 11.6668C9.91675 12.7498 10.347 13.7884 11.1127 14.5542C11.8785 15.32 12.9171 15.7502 14.0001 15.7502Z" fill="#B59255"/>
</svg>
