<svg width="30" height="30" viewBox="0 0 30 30" fill="none" xmlns="http://www.w3.org/2000/svg">
<path d="M6.25002 12.325C8.65024 17.5507 12.9143 21.6926 18.2075 23.94L19.0575 24.3188C19.9988 24.7379 21.0578 24.8114 22.048 24.5262C23.0381 24.2411 23.8958 23.6156 24.47 22.76L25.5813 21.105C25.7552 20.8455 25.8256 20.5302 25.7786 20.2213C25.7316 19.9125 25.5707 19.6324 25.3275 19.4363L21.5625 16.3988C21.4314 16.293 21.2803 16.2149 21.1182 16.1691C20.9561 16.1232 20.7865 16.1106 20.6194 16.132C20.4523 16.1533 20.2913 16.2083 20.146 16.2934C20.0007 16.3786 19.8741 16.4922 19.7738 16.6275L18.6088 18.1988C15.6183 16.7218 13.1977 14.3008 11.7213 11.31L13.2913 10.145C13.4266 10.0447 13.5402 9.9181 13.6254 9.77279C13.7105 9.62747 13.7654 9.46644 13.7868 9.29938C13.8082 9.13231 13.7955 8.96265 13.7497 8.80058C13.7039 8.63851 13.6257 8.48738 13.52 8.35626L10.4825 4.59126C10.2864 4.34808 10.0063 4.18715 9.69744 4.14019C9.38858 4.09322 9.07332 4.16362 8.81377 4.33751L7.14752 5.45501C6.28677 6.03223 5.65888 6.89628 5.37571 7.89322C5.09254 8.89016 5.17247 9.95525 5.60127 10.8988L6.25002 12.325Z" fill="#B59255"/>
</svg>
