<svg width="32" height="32" viewBox="0 0 32 32" fill="none" xmlns="http://www.w3.org/2000/svg">
<path fill-rule="evenodd" clip-rule="evenodd" d="M14.0001 2.66675C12.1929 2.6669 10.4119 3.09923 8.80577 3.92767C7.19963 4.75611 5.81488 5.95664 4.76708 7.42909C3.71927 8.90153 3.03877 10.6032 2.78237 12.3921C2.52597 14.1811 2.70109 16.0054 3.29313 17.7129C3.88517 19.4203 4.87696 20.9615 6.18574 22.2077C7.49453 23.4539 9.08237 24.3691 10.8168 24.8769C12.5512 25.3846 14.3819 25.4703 16.1561 25.1266C17.9304 24.783 19.5967 24.02 21.0161 22.9014L25.8854 27.7707C26.1369 28.0136 26.4737 28.148 26.8233 28.145C27.1729 28.1419 27.5073 28.0017 27.7545 27.7545C28.0017 27.5073 28.142 27.1729 28.145 26.8233C28.148 26.4737 28.0136 26.1369 27.7708 25.8854L22.9014 21.0161C24.2188 19.3449 25.039 17.3366 25.2682 15.221C25.4975 13.1055 25.1265 10.9681 24.1977 9.05354C23.269 7.13897 21.8199 5.52456 20.0165 4.39506C18.2131 3.26556 16.128 2.66661 14.0001 2.66675ZM5.33343 14.0001C5.33343 11.7015 6.24652 9.49714 7.87184 7.87182C9.49715 6.24651 11.7016 5.33341 14.0001 5.33341C16.2986 5.33341 18.503 6.24651 20.1284 7.87182C21.7537 9.49714 22.6668 11.7015 22.6668 14.0001C22.6668 16.2986 21.7537 18.503 20.1284 20.1283C18.503 21.7537 16.2986 22.6667 14.0001 22.6667C11.7016 22.6667 9.49715 21.7537 7.87184 20.1283C6.24652 18.503 5.33343 16.2986 5.33343 14.0001Z" fill="#344054"/>
</svg>
